<svg id="Layer_1" data-name="Layer 1" xmlns="http://www.w3.org/2000/svg" viewBox="0 0 421.39 300"><defs><style>.cls-1{fill:none;}.cls-2{fill:#fff;}</style></defs><title>flow</title><rect class="cls-1" width="421.39" height="300"/><path class="cls-2" d="M451.3,127a53.57,53.57,0,0,0-7.36-9.82c-.67-.71-1.32-1.46-2-2.16l-2.1-2c-1.36-1.39-2.87-2.52-4.31-3.75A96,96,0,0,0,417,97.68a128.8,128.8,0,0,0-39.82-10.77l-5.08-.6c-1.67-.14-3.33-.16-5-.25a74.53,74.53,0,0,0-29.39,5.26c-1.59.58-3.15,1.37-4.74,2s-3.12,1.53-4.68,2.28-3.1,1.69-4.63,2.57-3.07,1.82-4.58,2.81c-6.09,3.87-12.08,8.24-18.1,12.8S288.91,123,282.58,127.3a119.88,119.88,0,0,1-19.87,11.25A67.48,67.48,0,0,1,241.19,144l-1.37.12h-1.38l-2.74,0A25,25,0,0,1,233,144l-2.74-.21c-1.81-.18-3.55-.51-5.33-.75s-3.53-.68-5.29-1-3.51-.83-5.26-1.29-3.48-1-5.21-1.58a103.94,103.94,0,0,1-10.25-3.94c-3.38-1.46-6.7-3.17-10-5s-6.49-3.84-9.63-6a133,133,0,0,1-17.94-15.05,113.71,113.71,0,0,1-15.52-19.08,102,102,0,0,0,8.31,8.43c2.85,2.63,5.78,5.11,8.77,7.4a131.18,131.18,0,0,0,18.47,12.05,120.6,120.6,0,0,0,19.38,8.43,113.37,113.37,0,0,0,19.93,4.74c1.68.2,3.36.44,5,.6s3.38.31,5,.35l2.46,0a18.19,18.19,0,0,0,2.45,0l2.45-.15,1.22-.08,1.22-.18a64.7,64.7,0,0,0,19.12-5.71A120.41,120.41,0,0,0,278,115c6-4.2,12-8.84,18.07-13.44s12.34-9.09,18.84-13.09a105.9,105.9,0,0,1,20.31-9.91,76.2,76.2,0,0,1,32.32-4.18c1.79.22,3.6.38,5.37.66l5.25,1a122,122,0,0,1,40.8,15.33,100,100,0,0,1,18.2,14.73c1.37,1.51,2.8,2.92,4.07,4.58l2,2.41c.63.83,1.24,1.7,1.85,2.56A57,57,0,0,1,451.3,127Z" transform="translate(-84.54)"/><path class="cls-2" d="M444.67,192.86a54.41,54.41,0,0,0-7.36-9.81c-.68-.72-1.33-1.47-2-2.16l-2.1-2c-1.37-1.39-2.87-2.52-4.31-3.74a95.53,95.53,0,0,0-18.49-11.58,129.21,129.21,0,0,0-39.83-10.77l-5.07-.6c-1.68-.14-3.33-.16-5-.25a74.52,74.52,0,0,0-29.38,5.26c-1.6.58-3.16,1.37-4.74,2s-3.13,1.53-4.69,2.29-3.09,1.68-4.63,2.57-3.06,1.81-4.58,2.81c-6.09,3.86-12.08,8.23-18.09,12.79s-12.12,9.18-18.45,13.51a119.48,119.48,0,0,1-19.87,11.25,67.15,67.15,0,0,1-21.52,5.42l-1.37.12h-1.37l-2.75,0a25.12,25.12,0,0,1-2.74-.12l-2.73-.22c-1.81-.17-3.56-.51-5.34-.75s-3.53-.68-5.29-1-3.51-.83-5.26-1.29-3.48-1-5.2-1.58a106.68,106.68,0,0,1-10.26-3.94c-3.38-1.47-6.7-3.17-10-5s-6.49-3.84-9.62-6A134.55,134.55,0,0,1,154.69,175a114,114,0,0,1-15.51-19.07,100.26,100.26,0,0,0,8.31,8.42q4.27,4,8.76,7.4a131.85,131.85,0,0,0,18.48,12.05,120.6,120.6,0,0,0,19.38,8.43A113.37,113.37,0,0,0,214,197c1.68.2,3.35.44,5,.6s3.38.31,5,.35l2.46,0a20.19,20.19,0,0,0,2.46,0l2.45-.16,1.22-.07,1.22-.18A65.11,65.11,0,0,0,253,191.82a119,119,0,0,0,18.3-11c6-4.2,12-8.83,18.08-13.44s12.34-9.08,18.84-13.09a105.82,105.82,0,0,1,20.3-9.91A76.9,76.9,0,0,1,350,140.08a75.24,75.24,0,0,1,10.83.17c1.79.22,3.6.37,5.37.65l5.26,1a121.9,121.9,0,0,1,40.79,15.33A100.87,100.87,0,0,1,430.49,172c1.37,1.52,2.79,2.92,4.07,4.58l1.95,2.41c.64.83,1.24,1.71,1.85,2.56A57.5,57.5,0,0,1,444.67,192.86Z" transform="translate(-84.54)"/></svg>