<svg id="Layer_1" data-name="Layer 1" xmlns="http://www.w3.org/2000/svg" viewBox="0 0 421.39 300"><defs><style>.cls-1{fill:none;}.cls-2{fill:#fff;}</style></defs><title>ui</title><rect class="cls-1" width="421.39" height="300"/><rect class="cls-2" x="258.82" y="76.2" width="191.93" height="53.1" rx="26.55" transform="matrix(0.77, -0.64, 0.64, 0.77, -68.41, 250.22)"/><rect class="cls-2" x="276.95" y="118.9" width="33.96" height="68.69" rx="3.46" transform="translate(-114.67 222.99) rotate(-39.68)"/><path class="cls-2" d="M293.76,151.4l-41,35.87c2.14,3.94-.49,10.27-6.25,9.31a6.22,6.22,0,0,1-2.92-1.28l-83.21,72.83,133.16-48.67Z" transform="translate(-84.54)"/><path class="cls-2" d="M248.56,184.4a5.66,5.66,0,0,1,4.27,3l42.91-33.3L228.89,141.3,155.73,262.74l87.42-67.86C239.63,191.21,242.18,183.33,248.56,184.4Z" transform="translate(-84.54)"/></svg>